<svg xmlns="http://www.w3.org/2000/svg" viewBox="0 0 100 100">
  <!-- Shield/Diamond background like Superman logo -->
  <polygon points="50,2 95,30 95,70 50,98 5,70 5,30" fill="#0d1117" stroke="#38bdf8" stroke-width="4"/>
  
  <!-- Inner shield -->
  <polygon points="50,10 88,34 88,66 50,90 12,66 12,34" fill="#0f172a"/>
  
  <!-- Bold stylized S letter -->
  <path d="
    M 30 25
    L 70 25
    L 70 35
    L 42 35
    L 42 42
    L 65 42
    C 78 42 78 58 65 58
    L 42 58
    L 42 65
    L 70 65
    L 70 75
    L 30 75
    L 30 65
    L 58 65
    L 58 58
    L 35 58
    C 22 58 22 42 35 42
    L 58 42
    L 58 35
    L 30 35
    Z
  " fill="#38bdf8"/>
</svg>
